<svg xmlns="http://www.w3.org/2000/svg" width="1400" height="900" viewBox="0 0 1400 900">
  <rect x="0" y="0" width="1400" height="900" fill="#f8fafc"/>
  <text x="30" y="50" font-size="34" font-family="Arial" font-weight="700">MVP NODE WIRING (Pico 2 W + MFRC522 + 2 Servo + Raspberry Pi)</text>

  <rect x="60" y="120" width="360" height="250" rx="16" fill="#dbeafe" stroke="#1d4ed8" stroke-width="3"/>
  <text x="90" y="165" font-size="28" font-family="Arial" font-weight="700">Pico 2 W / Pico 2 WH</text>
  <text x="90" y="205" font-size="22" font-family="Arial">3.3V logic</text>
  <text x="90" y="240" font-size="22" font-family="Arial">SPI: GP18/19/16 + CS GP17</text>
  <text x="90" y="275" font-size="22" font-family="Arial">RFID RST: GP20</text>
  <text x="90" y="310" font-size="22" font-family="Arial">Servo PWM: GP14/GP15</text>

  <rect x="520" y="130" width="300" height="180" rx="16" fill="#dcfce7" stroke="#166534" stroke-width="3"/>
  <text x="560" y="180" font-size="28" font-family="Arial" font-weight="700">MFRC522</text>
  <text x="560" y="220" font-size="22" font-family="Arial">SPI + 3.3V</text>

  <rect x="980" y="120" width="340" height="200" rx="16" fill="#fef3c7" stroke="#b45309" stroke-width="3"/>
  <text x="1020" y="175" font-size="28" font-family="Arial" font-weight="700">Raspberry Pi</text>
  <text x="1020" y="215" font-size="22" font-family="Arial">Mosquitto + bridge</text>
  <text x="1020" y="250" font-size="22" font-family="Arial">USB Serial to Pico</text>

  <rect x="520" y="430" width="300" height="150" rx="16" fill="#fee2e2" stroke="#b91c1c" stroke-width="3"/>
  <text x="560" y="485" font-size="26" font-family="Arial" font-weight="700">Servo #1 / #2</text>

  <rect x="980" y="430" width="340" height="180" rx="16" fill="#e0f2fe" stroke="#0369a1" stroke-width="3"/>
  <text x="1020" y="485" font-size="28" font-family="Arial" font-weight="700">External 5V PSU</text>
  <text x="1020" y="520" font-size="22" font-family="Arial">Servo power only</text>

  <line x1="420" y1="210" x2="520" y2="210" stroke="#111827" stroke-width="4"/>
  <text x="430" y="195" font-size="18" font-family="Arial">SPI BUS</text>

  <line x1="820" y1="220" x2="980" y2="220" stroke="#111827" stroke-width="4"/>
  <text x="830" y="205" font-size="18" font-family="Arial">USB SERIAL</text>

  <line x1="420" y1="310" x2="520" y2="500" stroke="#111827" stroke-width="4"/>
  <text x="420" y="380" font-size="18" font-family="Arial">PWM signals</text>

  <line x1="980" y1="500" x2="820" y2="500" stroke="#b91c1c" stroke-width="4"/>
  <line x1="820" y1="500" x2="820" y2="530" stroke="#b91c1c" stroke-width="4"/>
  <line x1="820" y1="530" x2="520" y2="530" stroke="#b91c1c" stroke-width="4"/>
  <text x="835" y="490" font-size="18" font-family="Arial" fill="#b91c1c">+5V servo power</text>

  <line x1="980" y1="560" x2="350" y2="560" stroke="#0f172a" stroke-width="5"/>
  <line x1="350" y1="560" x2="350" y2="370" stroke="#0f172a" stroke-width="5"/>
  <line x1="350" y1="560" x2="520" y2="560" stroke="#0f172a" stroke-width="5"/>
  <text x="560" y="595" font-size="22" font-family="Arial" font-weight="700">COMMON GND</text>

  <text x="60" y="830" font-size="24" font-family="Arial" fill="#b91c1c" font-weight="700">WARNING: Do NOT apply 5V logic signals to Pico GPIO.</text>
  <text x="60" y="865" font-size="24" font-family="Arial" fill="#b91c1c" font-weight="700">WARNING: Do NOT power servo from Pico pins.</text>
</svg>
